<?xml version="1.0" standalone="no"?>
<!DOCTYPE svg PUBLIC "-//W3C//DTD SVG 20010904//EN"
 "http://www.w3.org/TR/2001/REC-SVG-20010904/DTD/svg10.dtd">
<svg version="1.0" xmlns="http://www.w3.org/2000/svg"
 width="48.000000pt" height="48.000000pt" viewBox="0 0 48.000000 48.000000"
 preserveAspectRatio="xMidYMid meet">

<g transform="translate(0.000000,48.000000) scale(0.100000,-0.100000)"
fill="#000000" stroke="none">
<path d="M180 471 c-93 -29 -154 -95 -175 -188 -6 -29 -4 -33 13 -33 15 0 21
9 26 34 10 51 58 110 111 136 75 36 200 18 165 -25 -11 -13 -7 -15 34 -15 l46
0 0 45 c0 41 -2 44 -18 34 -14 -9 -29 -7 -65 5 -51 17 -96 19 -137 7z"/>
<path d="M220 312 l0 -88 40 -39 c34 -33 41 -36 55 -25 14 12 12 17 -20 50
-34 35 -35 38 -35 113 0 70 -2 77 -20 77 -18 0 -20 -7 -20 -88z"/>
<path d="M437 334 c-3 -4 -3 -35 0 -69 5 -53 2 -71 -17 -110 -27 -55 -87 -103
-142 -111 -29 -5 -38 -11 -38 -26 0 -18 4 -19 37 -13 138 26 229 163 194 293
-11 40 -20 50 -34 36z"/>
<path d="M90 214 c0 -10 -7 -14 -22 -13 -33 5 -46 -7 -40 -36 3 -18 0 -25 -12
-25 -21 0 -21 -46 0 -54 10 -4 14 -14 11 -26 -6 -24 9 -36 41 -31 15 1 22 -3
22 -13 0 -10 9 -16 25 -16 16 0 25 6 25 15 0 10 10 15 31 15 23 0 30 4 28 18
-3 32 1 42 16 42 9 0 15 9 15 25 0 15 -6 25 -14 25 -9 0 -16 12 -18 28 -2 21
-9 28 -30 30 -16 2 -28 9 -28 18 0 8 -10 14 -25 14 -16 0 -25 -6 -25 -16z m55
-99 c0 -24 -5 -31 -24 -33 -32 -5 -54 23 -40 50 7 13 19 18 37 16 23 -2 27 -8
27 -33z"/>
</g>
</svg>
