<?xml version="1.0" standalone="no"?>
<!DOCTYPE svg PUBLIC "-//W3C//DTD SVG 20010904//EN"
 "http://www.w3.org/TR/2001/REC-SVG-20010904/DTD/svg10.dtd">
<svg version="1.0" xmlns="http://www.w3.org/2000/svg"
 width="48.000000pt" height="48.000000pt" viewBox="0 0 48.000000 48.000000"
 preserveAspectRatio="xMidYMid meet">

<g transform="translate(0.000000,48.000000) scale(0.100000,-0.100000)"
fill="#000000" stroke="none">
<path d="M152 458 c-7 -7 -12 -29 -12 -51 0 -26 -8 -49 -26 -73 -37 -47 -42
-109 -15 -162 11 -22 25 -43 31 -47 5 -3 10 -25 10 -49 0 -23 5 -47 12 -54 16
-16 140 -16 156 0 7 7 12 31 12 54 0 24 4 45 9 49 5 3 23 30 39 60 l30 55 -30
55 c-16 30 -34 57 -39 60 -5 4 -9 25 -9 49 0 23 -5 47 -12 54 -7 7 -40 12 -78
12 -38 0 -71 -5 -78 -12z m146 -51 c3 -36 2 -38 -17 -28 -25 14 -77 14 -102 1
-17 -10 -19 -7 -19 23 0 19 3 37 7 41 4 4 34 6 68 4 l60 -3 3 -38z m11 -65
c58 -43 64 -140 12 -193 -76 -75 -204 -30 -217 77 -14 110 115 183 205 116z
m-79 -252 c17 0 40 5 51 11 19 10 20 8 17 -28 l-3 -38 -65 0 -65 0 -3 38 c-3
36 -2 38 17 28 11 -6 34 -11 51 -11z"/>
<path d="M170 291 c0 -5 7 -14 15 -21 8 -7 15 -21 15 -31 0 -10 5 -21 10 -24
6 -3 10 -22 10 -41 0 -19 5 -34 10 -34 6 0 10 14 10 30 0 17 5 39 12 49 15 24
4 51 -20 51 -11 0 -25 7 -32 15 -14 17 -30 20 -30 6z m70 -51 c0 -5 -4 -10
-10 -10 -5 0 -10 5 -10 10 0 6 5 10 10 10 6 0 10 -4 10 -10z"/>
</g>
</svg>
